HIERARCHY
ROOT SpineBase
{
  OFFSET 0.000000 0.000000 0.000000
  CHANNELS 6 Xposition Yposition Zposition Zrotation Xrotation Yrotation
  JOINT SpineMid
  {
    OFFSET -0.000000 32.198237 0.000000
    CHANNELS 3 Zrotation Xrotation Yrotation
    JOINT SpineShoulder
    {
      OFFSET 0.175392 23.975128 -0.841395
      CHANNELS 3 Zrotation Xrotation Yrotation
      JOINT Neck
      {
        OFFSET 0.118915 7.932975 -0.610130
        CHANNELS 3 Zrotation Xrotation Yrotation
        JOINT Head
        {
          OFFSET -5.316816 14.165196 -1.767881
          CHANNELS 3 Zrotation Xrotation Yrotation
          End Site
          {
            OFFSET 0 0 0
          }
        }
      }
      JOINT ShoulderLeft
      {
        OFFSET -17.174706 -6.147517 6.227446
        CHANNELS 3 Zrotation Xrotation Yrotation
        JOINT ElbowLeft
        {
          OFFSET -1.060162 -31.006002 2.800790
          CHANNELS 3 Zrotation Xrotation Yrotation
          JOINT WristLeft
          {
            OFFSET -1.975925 -23.076258 -3.826644
            CHANNELS 3 Zrotation Xrotation Yrotation
            JOINT HandLeft
            {
              OFFSET -0.274892 -2.912576 -1.272074
              CHANNELS 3 Zrotation Xrotation Yrotation
              JOINT HandTipLeft
              {
                OFFSET -2.208138 -7.650360 -0.255808
                CHANNELS 3 Zrotation Xrotation Yrotation
                End Site
                {
                  OFFSET 0 0 0
                }
              }
              JOINT ThumbLeft
              {
                OFFSET -3.791015 1.750370 -3.982935
                CHANNELS 3 Zrotation Xrotation Yrotation
                End Site
                {
                  OFFSET 0 0 0
                }
              }
            }
          }
        }
      }
      JOINT ShoulderRight
      {
        OFFSET 14.748230 -3.160740 -8.899806
        CHANNELS 3 Zrotation Xrotation Yrotation
        JOINT ElbowRight
        {
          OFFSET 7.883075 -26.403149 -1.842534
          CHANNELS 3 Zrotation Xrotation Yrotation
          JOINT WristRight
          {
            OFFSET -1.027875 -23.785746 -6.679263
            CHANNELS 3 Zrotation Xrotation Yrotation
            JOINT HandRight
            {
              OFFSET -0.513300 -6.153334 -1.085321
              CHANNELS 3 Zrotation Xrotation Yrotation
              JOINT HandTipRight
              {
                OFFSET -0.734291 -6.891243 -0.485637
                CHANNELS 3 Zrotation Xrotation Yrotation
                End Site
                {
                  OFFSET 0 0 0
                }
              }
              JOINT ThumbRight
              {
                OFFSET -3.589932 -0.162512 -1.022546
                CHANNELS 3 Zrotation Xrotation Yrotation
                End Site
                {
                  OFFSET 0 0 0
                }
              }
            }
          }
        }
      }
    }
  }
  JOINT HipLeft
  {
    OFFSET -6.479525 0.256865 -1.115124
    CHANNELS 3 Zrotation Xrotation Yrotation
    JOINT KneeLeft
    {
      OFFSET 3.754515 -35.897276 3.963379
      CHANNELS 3 Zrotation Xrotation Yrotation
      JOINT AnkleLeft
      {
        OFFSET 5.355581 -33.264499 6.562497
        CHANNELS 3 Zrotation Xrotation Yrotation
        JOINT FootLeft
        {
          OFFSET 1.221103 -10.038551 -3.017131
          CHANNELS 3 Zrotation Xrotation Yrotation
          End Site
          {
            OFFSET 0 0 0
          }
        }
      }
    }
  }
  JOINT HipRight
  {
    OFFSET 7.345879 1.711452 -6.243183
    CHANNELS 3 Zrotation Xrotation Yrotation
    JOINT KneeRight
    {
      OFFSET 9.112272 -32.474361 -0.276875
      CHANNELS 3 Zrotation Xrotation Yrotation
      JOINT AnkleRight
      {
        OFFSET 3.261630 -36.161812 8.886349
        CHANNELS 3 Zrotation Xrotation Yrotation
        JOINT FootRight
        {
          OFFSET -4.251808 -3.800296 -13.367189
          CHANNELS 3 Zrotation Xrotation Yrotation
          End Site
          {
            OFFSET 0 0 0
          }
        }
      }
    }
  }
}
MOTION
Frames: 6
Frame Time: 0.033333
-38.156419 78.943461 320.757401 0.000000 0.000000 20.350604 -0.000000 -0.000000 -20.350604 -0.000000 0.000000 0.000000 -0.000000 0.000000 0.000000 0.000000 0.000000 0.000000 -0.000000 0.000000 0.000000 -0.000000 0.000000 0.000000 -0.000000 0.000000 0.000000 -0.000000 0.000000 0.000000 0.000000 0.000000 0.000000 0.000000 0.000000 0.000000 -0.000000 0.000000 0.000000 -0.000000 0.000000 0.000000 -0.000000 0.000000 0.000000 -0.000000 0.000000 0.000000 0.000000 0.000000 0.000000 0.000000 0.000000 0.000000 -0.000000 -0.000000 -20.350604 -0.000000 0.000000 0.000000 -0.000000 0.000000 0.000000 0.000000 0.000000 0.000000 -0.000000 -0.000000 -20.350604 -0.000000 0.000000 0.000000 -0.000000 0.000000 0.000000 0.000000 0.000000 0.000000
-38.130178 78.950061 320.727985 -0.090112 -0.041914 20.505253 0.099084 0.007693 -20.505292 -0.000000 0.000000 0.000000 -0.000000 0.000000 0.000000 0.000000 0.000000 0.000000 -0.000000 0.000000 0.000000 -0.000000 0.000000 0.000000 2.055407 2.858510 -1.207772 -2.578325 -1.032498 0.563223 0.000000 0.000000 0.000000 0.000000 0.000000 0.000000 -0.000000 0.000000 0.000000 -0.000000 0.000000 0.000000 -1.004769 0.372126 0.149251 1.035210 0.899822 -0.280552 0.000000 0.000000 0.000000 0.000000 0.000000 0.000000 0.099084 0.007693 -20.505292 -0.000000 0.000000 0.000000 -10.281667 22.981277 7.633086 0.000000 0.000000 0.000000 0.099084 0.007693 -20.505292 -0.000000 0.000000 0.000000 -0.000000 0.000000 0.000000 0.000000 0.000000 0.000000
-38.087012 78.955618 320.670644 -0.159597 -0.068631 20.599938 0.173540 0.008090 -20.600046 -0.000000 0.000000 0.000000 -0.000000 0.000000 0.000000 0.000000 0.000000 0.000000 -0.000000 0.000000 0.000000 -0.000000 0.000000 0.000000 3.841725 5.809056 -2.376746 -4.822298 -2.074390 0.818780 0.000000 0.000000 0.000000 0.000000 0.000000 0.000000 -0.000000 0.000000 0.000000 -0.000000 0.000000 0.000000 -1.943624 0.741831 0.292800 1.952124 1.497449 -0.507010 0.000000 0.000000 0.000000 0.000000 0.000000 0.000000 0.173540 0.008090 -20.600046 -0.000000 0.000000 0.000000 -21.358331 38.052408 17.221861 0.000000 0.000000 0.000000 0.173540 0.008090 -20.600046 -0.000000 0.000000 0.000000 -0.000000 0.000000 0.000000 0.000000 0.000000 0.000000
-38.026920 78.960131 320.585380 -0.208469 -0.080162 20.634861 0.223345 0.001552 -20.635010 -0.000000 0.000000 0.000000 -0.000000 0.000000 0.000000 0.000000 0.000000 0.000000 -0.000000 0.000000 0.000000 -0.000000 0.000000 0.000000 5.176391 8.685481 -3.378379 -6.549008 -2.935384 0.730969 0.000000 0.000000 0.000000 0.000000 0.000000 0.000000 -0.000000 0.000000 0.000000 -0.000000 0.000000 0.000000 -2.805416 1.106479 0.428102 2.735049 1.784139 -0.676948 0.000000 0.000000 0.000000 0.000000 0.000000 0.000000 0.223345 0.001552 -20.635010 -0.000000 0.000000 0.000000 -30.474578 45.747617 25.563048 0.000000 0.000000 0.000000 0.223345 0.001552 -20.635010 -0.000000 0.000000 0.000000 -0.000000 0.000000 0.000000 0.000000 0.000000 0.000000
-37.949903 78.963600 320.472192 -0.236741 -0.076512 20.610191 0.248522 -0.011720 -20.610324 -0.000000 0.000000 0.000000 -0.000000 0.000000 0.000000 0.000000 0.000000 0.000000 -0.000000 0.000000 0.000000 -0.000000 0.000000 0.000000 5.902749 11.317484 -4.078903 -7.619819 -3.424464 0.317649 0.000000 0.000000 0.000000 0.000000 0.000000 0.000000 -0.000000 0.000000 0.000000 -0.000000 0.000000 0.000000 -3.579830 1.463462 0.552574 3.371596 1.758449 -0.790096 0.000000 0.000000 0.000000 0.000000 0.000000 0.000000 0.248522 -0.011720 -20.610324 -0.000000 0.000000 0.000000 -36.364713 49.275024 31.064303 0.000000 0.000000 0.000000 0.248522 -0.011720 -20.610324 -0.000000 0.000000 0.000000 -0.000000 0.000000 0.000000 0.000000 0.000000 0.000000
-37.855961 78.966025 320.331080 -0.244422 -0.057689 20.526058 0.249132 -0.031676 -20.526113 -0.000000 0.000000 0.000000 -0.000000 0.000000 0.000000 0.000000 0.000000 0.000000 -0.000000 0.000000 0.000000 -0.000000 0.000000 0.000000 5.928294 13.558077 -4.374514 -7.967644 -3.398406 -0.360866 0.000000 0.000000 0.000000 0.000000 0.000000 0.000000 -0.000000 0.000000 0.000000 -0.000000 0.000000 0.000000 -4.257691 1.810252 0.663677 3.853053 1.425645 -0.848314 0.000000 0.000000 0.000000 0.000000 0.000000 0.000000 0.249132 -0.031676 -20.526113 -0.000000 0.000000 0.000000 -38.901728 50.522646 33.448707 0.000000 0.000000 0.000000 0.249132 -0.031676 -20.526113 -0.000000 0.000000 0.000000 -0.000000 0.000000 0.000000 0.000000 0.000000 0.000000
